<svg width="34" height="34" viewBox="0 0 34 34" xmlns="http://www.w3.org/2000/svg">
    <path d="m4.25 17 2.833-2.833m0 0L17 4.25l9.917 9.917m-19.834 0v14.166c0 .783.635 1.417 1.417 1.417h4.25m14.167-15.583L29.75 17m-2.833-2.833v14.166c0 .783-.635 1.417-1.417 1.417h-4.25m-8.5 0c.782 0 1.417-.634 1.417-1.417v-5.666c0-.783.634-1.417 1.416-1.417h2.834c.782 0 1.416.634 1.416 1.417v5.666c0 .783.635 1.417 1.417 1.417m-8.5 0h8.5" stroke="#5F6D81" stroke-width="2" fill="none" fill-rule="evenodd" stroke-linecap="round" stroke-linejoin="round"/>
</svg>
