<svg width="194" height="36" viewBox="0 0 194 36" xmlns="http://www.w3.org/2000/svg">
    <g fill="#020304" fill-rule="nonzero">
        <path d="M17.164 9.068c.08-.896-.134-1.6-.643-2.111-.508-.511-1.365-.767-2.57-.767-.767 0-1.408.09-1.92.272-.514.18-.911.43-1.192.746a2.181 2.181 0 0 0-.53 1.1c-.08.325-.073.622.021.889s.277.509.549.726c.272.217.633.412 1.084.584.45.172.989.326 1.613.461l2.142.489c1.464.326 2.693.753 3.688 1.283.995.53 1.778 1.156 2.35 1.88a5.72 5.72 0 0 1 1.13 2.43c.184.896.186 1.873.007 2.932-.303 1.828-1.004 3.375-2.101 4.642-1.098 1.267-2.53 2.231-4.297 2.892-1.768.66-3.811.99-6.132.99-2.373 0-4.388-.359-6.044-1.078-1.655-.72-2.85-1.824-3.587-3.313-.736-1.488-.917-3.391-.542-5.708h7.068c-.107.85-.018 1.566.268 2.145.285.58.745 1.018 1.378 1.317.634.298 1.424.448 2.37.448.803 0 1.49-.1 2.061-.299.571-.199 1.022-.475 1.352-.828.33-.353.531-.756.603-1.208.071-.416 0-.787-.214-1.113-.215-.326-.603-.62-1.165-.883-.562-.262-1.334-.502-2.316-.719l-2.624-.597c-2.329-.543-4.087-1.44-5.274-2.688-1.187-1.249-1.606-2.96-1.258-5.131C2.724 7.077 3.445 5.527 4.6 4.2c1.155-1.325 2.628-2.357 4.417-3.095C10.808.37 12.791 0 14.968 0c2.214 0 4.068.376 5.563 1.127 1.494.75 2.57 1.805 3.226 3.163.656 1.357.832 2.95.529 4.778h-7.122zM22.177 36 26.89 7.33h7.336l-.589 3.638h.16a7.736 7.736 0 0 1 1.487-1.948 7.2 7.2 0 0 1 2.168-1.425c.83-.357 1.754-.536 2.771-.536 1.357 0 2.586.366 3.688 1.1 1.102.732 1.91 1.886 2.423 3.46.513 1.576.565 3.62.154 6.137-.392 2.407-1.089 4.402-2.088 5.986-1 1.584-2.178 2.765-3.534 3.543-1.357.778-2.767 1.167-4.23 1.167-.964 0-1.796-.16-2.497-.481-.7-.322-1.267-.76-1.7-1.317a4.768 4.768 0 0 1-.89-1.894h-.16L29.566 34l-7.39 2zm10.227-18.244c-.16 1.013-.17 1.889-.026 2.626.143.738.424 1.308.843 1.71.42.403.968.605 1.647.605.678 0 1.287-.197 1.827-.59.54-.394.995-.96 1.365-1.697.37-.738.645-1.623.824-2.654.16-1.032.174-1.917.04-2.654-.134-.738-.406-1.303-.817-1.697-.41-.394-.955-.59-1.633-.59s-1.294.196-1.847.59c-.554.394-1.022.96-1.406 1.697-.384.737-.656 1.622-.817 2.654zM56.694 28.561c-2.23 0-4.067-.45-5.508-1.35-1.441-.901-2.452-2.159-3.032-3.774-.58-1.616-.696-3.491-.348-5.627.348-2.136 1.075-4.011 2.182-5.627a11.511 11.511 0 0 1 4.27-3.773c1.74-.901 3.73-1.351 5.97-1.351 2.223 0 4.054.45 5.496 1.35 1.441.901 2.454 2.159 3.038 3.774.585 1.616.703 3.491.355 5.627-.348 2.136-1.08 4.011-2.195 5.627a11.636 11.636 0 0 1-4.277 3.773c-1.736.9-3.72 1.351-5.95 1.351zm.91-5.538c.643 0 1.23-.213 1.761-.638.531-.426.986-1.032 1.366-1.82.379-.787.658-1.723.836-2.81.179-1.094.205-2.033.08-2.816-.124-.783-.383-1.387-.776-1.812-.393-.426-.91-.638-1.553-.638-.642 0-1.231.212-1.767.638-.535.425-.99 1.03-1.365 1.812-.375.783-.652 1.722-.83 2.817-.179 1.086-.208 2.022-.087 2.81.12.787.38 1.393.776 1.819.397.425.917.638 1.56.638zM69.365 28.181l3.427-20.85h7.175l-.642 3.963h.214c.615-1.466 1.387-2.538 2.316-3.217.928-.679 1.94-1.018 3.038-1.018.322 0 .632.025.93.074.3.05.596.116.89.197l-1.07 6.408c-.348-.136-.78-.233-1.299-.292a12.362 12.362 0 0 0-1.378-.089c-.714 0-1.381.166-2.002.496-.62.33-1.146.792-1.58 1.385-.432.592-.72 1.287-.863 2.083l-1.767 10.86h-7.39zM102.242 7.33l-.91 5.43H87.785l.91-5.43h13.547zm-10.12-4.995h7.39l-3.133 19.14c-.045.29-.036.532.027.726.062.195.19.34.381.435.192.095.449.142.77.142.214 0 .477-.03.79-.088.312-.059.549-.102.71-.129l.214 5.267a25.96 25.96 0 0 1-1.506.373c-.63.14-1.36.233-2.19.279-1.73.081-3.138-.104-4.223-.557-1.084-.452-1.834-1.16-2.249-2.124-.415-.964-.488-2.17-.22-3.618l3.24-19.846zM118.554 9.068c.08-.896-.134-1.6-.643-2.111-.508-.511-1.365-.767-2.57-.767-.767 0-1.408.09-1.92.272-.514.18-.911.43-1.192.746a2.181 2.181 0 0 0-.529 1.1c-.08.325-.074.622.02.889s.277.509.549.726c.272.217.634.412 1.084.584.45.172.989.326 1.613.461l2.142.489c1.464.326 2.693.753 3.688 1.283.995.53 1.778 1.156 2.35 1.88a5.72 5.72 0 0 1 1.13 2.43c.184.896.186 1.873.007 2.932-.303 1.828-1.004 3.375-2.101 4.642-1.098 1.267-2.53 2.231-4.297 2.892-1.767.66-3.811.99-6.131.99-2.374 0-4.389-.359-6.045-1.078-1.655-.72-2.85-1.824-3.587-3.313-.736-1.488-.917-3.391-.542-5.708h7.068c-.107.85-.018 1.566.268 2.145.285.58.745 1.018 1.378 1.317.634.298 1.424.448 2.37.448.803 0 1.49-.1 2.061-.299.572-.199 1.022-.475 1.352-.828.33-.353.531-.756.603-1.208.071-.416 0-.787-.214-1.113-.215-.326-.603-.62-1.165-.883-.562-.262-1.334-.502-2.316-.719l-2.624-.597c-2.329-.543-4.087-1.44-5.274-2.688-1.187-1.249-1.606-2.96-1.258-5.131.285-1.774 1.006-3.324 2.162-4.65 1.155-1.325 2.628-2.357 4.417-3.095C112.198.37 114.181 0 116.358 0c2.214 0 4.068.376 5.563 1.127 1.494.75 2.57 1.805 3.226 3.163.656 1.357.832 2.95.529 4.778h-7.122zM134.223 16.452l-1.928 11.729h-7.39l4.552-27.8h7.122l-1.767 10.913h.214c.67-1.33 1.607-2.369 2.811-3.115 1.205-.747 2.57-1.12 4.097-1.12 1.445 0 2.65.335 3.614 1.004.964.67 1.647 1.593 2.048 2.77.402 1.176.478 2.524.228 4.045l-2.196 13.303h-7.39l1.929-11.729c.16-1.031.033-1.841-.382-2.43-.415-.588-1.091-.882-2.028-.882-.607 0-1.158.134-1.653.4a3.391 3.391 0 0 0-1.232 1.141c-.326.493-.542 1.084-.65 1.771zM158.031 28.561c-2.231 0-4.067-.45-5.509-1.35-1.44-.901-2.452-2.159-3.032-3.774-.58-1.616-.696-3.491-.348-5.627.348-2.136 1.076-4.011 2.182-5.627a11.511 11.511 0 0 1 4.27-3.773c1.74-.901 3.731-1.351 5.971-1.351 2.222 0 4.054.45 5.495 1.35 1.442.901 2.454 2.159 3.039 3.774.585 1.616.703 3.491.355 5.627-.348 2.136-1.08 4.011-2.196 5.627a11.636 11.636 0 0 1-4.277 3.773c-1.735.9-3.719 1.351-5.95 1.351zm.91-5.538c.643 0 1.23-.213 1.76-.638.532-.426.987-1.032 1.366-1.82.38-.787.658-1.723.837-2.81.178-1.094.205-2.033.08-2.816-.125-.783-.384-1.387-.776-1.812-.393-.426-.91-.638-1.553-.638-.643 0-1.232.212-1.767.638-.536.425-.99 1.03-1.366 1.812-.375.783-.651 1.722-.83 2.817-.178 1.086-.207 2.022-.087 2.81.12.787.38 1.393.777 1.819.397.425.917.638 1.56.638zM169.416 36l4.712-28.67h7.336l-.589 3.638h.16a7.736 7.736 0 0 1 1.487-1.948 7.2 7.2 0 0 1 2.168-1.425c.83-.357 1.754-.536 2.771-.536 1.357 0 2.586.366 3.688 1.1 1.103.732 1.91 1.886 2.423 3.46.514 1.576.565 3.62.154 6.137-.392 2.407-1.088 4.402-2.088 5.986-1 1.584-2.178 2.765-3.534 3.543-1.357.778-2.767 1.167-4.23 1.167-.964 0-1.796-.16-2.497-.481-.7-.322-1.267-.76-1.7-1.317a4.768 4.768 0 0 1-.89-1.894h-.16L176.805 34l-7.39 2zm10.228-18.244c-.161 1.013-.17 1.889-.027 2.626.143.738.424 1.308.843 1.71.42.403.969.605 1.647.605s1.287-.197 1.827-.59c.54-.394.995-.96 1.365-1.697.37-.738.645-1.623.824-2.654.16-1.032.174-1.917.04-2.654-.134-.738-.406-1.303-.817-1.697-.41-.394-.955-.59-1.633-.59s-1.294.196-1.847.59c-.554.394-1.022.96-1.406 1.697-.384.737-.656 1.622-.816 2.654z"/>
    </g>
</svg>
