<svg width="34" height="34" viewBox="0 0 34 34" xmlns="http://www.w3.org/2000/svg">
    <g stroke-width="2" fill="none" fill-rule="evenodd">
        <path d="M4.98 7.593c.53-.499 1.23-.669 2.103-.51h8.62c.918-.096 1.586.074 2.005.51.42.437.656 1.206.709 2.31V24.1l-2.766-.018H7.124c-1-.055-1.715-.291-2.144-.708-.428-.417-.671-1.113-.73-2.088V9.755c-.042-.942.201-1.663.73-2.162zM18.417 9.917h2.986c1.024-.057 1.867.065 2.53.367.662.301 1.185.7 1.567 1.195l2.704 2.688c.973 1.211 1.489 2.154 1.546 2.826.057.673.057 1.216 0 1.63v2.662c.116.872-.091 1.568-.622 2.09-.532.522-1.274.758-2.228.708h-8.483V9.917z" stroke="#718096"/>
        <circle stroke="#FFF" fill="#FFF" cx="24.083" cy="24.083" r="1.417"/>
        <circle stroke="#FFF" fill="#FFF" cx="9.917" cy="24.083" r="1.417"/>
        <circle stroke="#718096" cx="9.917" cy="24.083" r="2.833"/>
        <circle stroke="#718096" cx="24.083" cy="24.083" r="2.833"/>
    </g>
</svg>
