<svg width="20" height="20" viewBox="0 0 20 20" xmlns="http://www.w3.org/2000/svg">
    <g fill-rule="nonzero" fill="none">
        <path d="M7.5 14.167a1.667 1.667 0 1 1-3.333 0 1.667 1.667 0 0 1 3.333 0zM15.833 14.167a1.667 1.667 0 1 1-3.333 0 1.667 1.667 0 0 1 3.333 0z" fill="#FFF"/>
        <path d="M10.833 13.333h.834-.834zm0-6.666H10h.833zm3.578-.59L15 5.488l-.59.59zm2.845 2.846.59-.59-.59.59zM3.333 5H10V3.333H3.333V5zM10 5v8.333h1.667V5H10zm-6.667 8.333V5H1.667v8.333h1.666zm.834 0h-.834V15h.834v-1.667zm5.833 0H7.5V15H10v-1.667zm-8.333 0c0 .92.746 1.667 1.666 1.667v-1.667H1.667zm8.333 0V15c.92 0 1.667-.746 1.667-1.667H10zM10 5h1.667c0-.92-.746-1.667-1.667-1.667V5zM3.333 3.333c-.92 0-1.666.747-1.666 1.667h1.666V3.333zm8.334 10V6.667H10v6.666h1.667zm0-6.666h2.155V5h-2.155v1.667zm5 2.845v3.821h1.666V9.512h-1.666zm-2.845-2.845 2.845 2.845 1.178-1.179L15 5.488l-1.178 1.179zM12.5 13.333h-.833V15h.833v-1.667zm4.167 0h-.834V15h.834v-1.667zm1.666-3.821c0-.442-.175-.866-.488-1.179l-1.178 1.179h1.666zm-4.511-2.845L15 5.488A1.667 1.667 0 0 0 13.822 5v1.667zM10 13.333c0 .92.746 1.667 1.667 1.667v-1.667H10zm6.667 0V15c.92 0 1.666-.746 1.666-1.667h-1.666zm-5-6.666V5C10.747 5 10 5.746 10 6.667h1.667zm-5 7.5c0 .46-.373.833-.834.833v1.667a2.5 2.5 0 0 0 2.5-2.5H6.667zM5.833 15A.833.833 0 0 1 5 14.167H3.333a2.5 2.5 0 0 0 2.5 2.5V15zM5 14.167c0-.46.373-.834.833-.834v-1.666a2.5 2.5 0 0 0-2.5 2.5H5zm.833-.834c.46 0 .834.373.834.834h1.666a2.5 2.5 0 0 0-2.5-2.5v1.666zm9.167.834c0 .46-.373.833-.833.833v1.667a2.5 2.5 0 0 0 2.5-2.5H15zm-.833.833a.833.833 0 0 1-.834-.833h-1.666a2.5 2.5 0 0 0 2.5 2.5V15zm-.834-.833c0-.46.373-.834.834-.834v-1.666a2.5 2.5 0 0 0-2.5 2.5h1.666zm.834-.834c.46 0 .833.373.833.834h1.667a2.5 2.5 0 0 0-2.5-2.5v1.666z" fill="#5F6D81"/>
    </g>
</svg>
