<svg width="74" height="24" viewBox="0 0 74 24" xmlns="http://www.w3.org/2000/svg">
    <g fill="#1F1F1F" fill-rule="nonzero">
        <path d="M7.459 16.99c-1.369 0-2.027-1.052-1.684-2.268.71-2.519 5.27-6.253 8.376-6.253 2.268 0 2.094 2.024.767 3.75l-.735.811c-2.633 2.581-5.076 3.96-6.724 3.96zM18.566 0C14.6.002 10.232 2.423 7.49 4.717l.217.312C11.962 2.051 17.87.114 19.499 3.02c.86 1.534-.6 4.628-2.656 7.075.493-1.08.168-3.155-2.698-3.155C9.38 6.94 0 13.24 0 19.686c0 2.584 1.794 4.269 4.75 4.269 7.915 0 18.65-12.95 18.65-19.453C23.4 2.205 22.075 0 18.566 0zM28.755 16.99c-.46 0-.844-.162-1.083-.454-.25-.307-.325-.742-.206-1.192.262-.976 1.316-1.74 2.398-1.74h2.547l-.91 3.385h-2.746zm7.322-10.154c-.73-.893-1.908-1.294-2.752-1.294h-4.63l-.785 2.925h4.365l.418.045c.004 0 .402.046.621.343.18.248.206.618.077 1.1l-.207.77h-2.75c-2.367 0-5.667 1.695-6.402 4.433-.366 1.366-.046 2.549.665 3.418.706.863 2.036 1.338 3.474 1.338h2.547-.001 3.237l2.637-9.82c.438-1.636-.037-2.675-.514-3.258zM67.872 5.542c-1.252 0-2.415.37-3.362 1.07-.956.707-1.482 1.556-1.797 2.726-.68 2.536 1.315 3.76 2.922 4.627 1.15.623 2.145 1.16 1.93 1.955-.153.571-.402 1.07-1.818 1.07h-4.322l-.784 2.925h4.783c1.283 0 2.467-.267 3.42-.998.957-.733 1.496-1.755 1.83-3.002.32-1.188.104-2.321-.66-3.168-.639-.709-1.556-1.203-2.366-1.639-1.035-.556-2.012-1.081-1.84-1.719.103-.384.487-.922 1.323-.922h4.204l.785-2.925h-4.248M42.788 5.542c-1.252 0-2.415.37-3.363 1.07-.955.707-1.482 1.556-1.797 2.726-.681 2.536 1.318 3.76 2.922 4.627 1.15.623 2.145 1.16 1.931 1.955-.153.571-.403 1.07-1.819 1.07h-4.321l-.786 2.925h4.784c1.284 0 2.468-.267 3.422-.998.956-.733 1.495-1.755 1.83-3.002.318-1.188.102-2.321-.661-3.168-.638-.709-1.557-1.203-2.367-1.639-1.034-.556-2.011-1.081-1.84-1.719.104-.384.488-.922 1.323-.922h4.202l.787-2.925h-4.247M49.315 5.542l-3.751 14.373h3.169l3.75-14.373h-3.168M60.917 5.542c-5.58.02-8.5 3.73-9.428 7.186-1.1 4.098 1.086 7.187 5.084 7.187h2.679l.784-2.925h-2.678c-1.496 0-3.553-1.176-2.724-4.262.658-2.453 3.054-4.26 5.684-4.26h1.7l.786-2.926h-1.887M71.897 19.258h.278v-.621h.22c.149 0 .252.016.31.049.098.06.15.18.15.363v.125l.005.05.004.02.004.014h.26l-.008-.02a.304.304 0 0 1-.014-.082c-.002-.042-.005-.08-.004-.117v-.116a.434.434 0 0 0-.086-.244.387.387 0 0 0-.273-.155.583.583 0 0 0 .23-.076c.103-.067.154-.17.154-.312 0-.198-.081-.33-.244-.4-.092-.037-.236-.055-.433-.055h-.553v1.577zm.794-.85a.768.768 0 0 1-.264.034h-.252v-.57h.237c.155 0 .267.018.337.058.07.039.106.115.106.23 0 .122-.055.204-.164.247zm.808-.948a1.4 1.4 0 0 0-1.023-.419c-.394 0-.734.14-1.014.419-.282.28-.421.619-.421 1.013 0 .4.14.74.418 1.02.28.281.62.423 1.018.423.4 0 .74-.142 1.021-.423a1.39 1.39 0 0 0 .423-1.02c0-.396-.141-.735-.422-1.013zm-.145.139c.243.242.363.533.363.874 0 .345-.12.638-.363.881-.24.243-.532.365-.877.365-.344 0-.635-.122-.878-.365a1.21 1.21 0 0 1-.359-.88c0-.342.121-.633.361-.875.243-.243.535-.364.875-.364.344 0 .638.12.878.364z"/>
    </g>
</svg>
