<svg width="92" height="18" viewBox="0 0 92 18" xmlns="http://www.w3.org/2000/svg">
    <g fill="#1A1919" fill-rule="nonzero">
        <path d="M67.263 5.849c.303.226.682.332 1.107.332.424 0 .788-.106 1.09-.332.304-.226.456-.513.456-.83 0-.332-.152-.604-.455-.846a1.869 1.869 0 0 0-1.091-.332c-.425 0-.804.121-1.107.332-.288.242-.44.514-.44.846 0 .317.152.604.44.83M1.833 6.604c.09-1.057.606-1.993 1.576-2.778 1.03-.845 2.395-1.374 4.031-1.555l.243.045c.015.03.03.136.015.333l.015 8.272c0 .106-.075.167-.197.167h-.06c-1.94-.227-3.395-.785-4.396-1.676-.91-.815-1.334-1.736-1.227-2.808zm2-5.042C1 3.102-.259 5.034.044 7.359c.152.981.576 1.872 1.288 2.717a7.06 7.06 0 0 0 2.653 1.902c2.243.951 4.668 1.39 7.275 1.314 3.334-.09 6.199-1.102 8.548-3.05l.697-.68c.258-.301.182-.362-.212-.135-.621.317-1.622.664-3 1.011-1.335.348-2.365.544-3.153.59-.228.03-.349-.031-.349-.152V2.694l.015-.347.243-.046.697.09c1 .137 2.107.409 3.334.831l1.455.514.243.06c.045-.015.045-.12 0-.347-.091-.423-.425-.846-1.03-1.299C17.018.837 14.533.158 11.274.097 8.198.037 5.713.535 3.833 1.562z"/>
        <path d="M35.647 7.223c0-.196-.212-.317-.607-.332-1.212.045-2.985.905-5.259 2.596-.41.317-.773.227-1.06-.271L27.72 7.419a.884.884 0 0 0-.56-.483c-.304-.076-.607.045-.925.302-1.031.936-1.637 1.494-1.804 1.706-.227.241-.364.211-.379-.12l-.06-6.387c0-.226-.092-.332-.304-.332l-1.44.06c-.197.016-.303.091-.333.227-.136.996-.197 2.355-.212 4.076 0 1.766.076 3.08.227 3.91.106.845.44 1.359.955 1.525.515.166 1.03-.09 1.561-.77l.834-.997c.212-.301.44-.317.621-.045l.88 1.359c.515.68 1.363.68 2.545 0 .47-.242.955-.604 1.44-1.102.197-.196.273-.212.273-.03-.076.558.197 1.041.803 1.419.728.422 1.637.422 2.713 0 .576-.287.94-.544 1.092-.74l.348-.015c.44.68.834 1.026 1.198 1.072.379.045.864-.212 1.44-.74l1.758-1.495.576-.015 1.06 1.525c.652.876 1.35.89 2.077.045l1.106-1.328c.228-.302.425-.317.592-.03l1.06 1.434c.213.347.486.528.804.543.348.015.667-.15.97-.558l1.015-1.314c.137-.211.258-.317.334-.317.09.015.227.121.379.317l.955 1.193c.363.453.788.68 1.273.65.379-.046.894-.227 1.546-.605a10.228 10.228 0 0 0 1.773-1.51c-.03 4.092.06 6.643.273 7.64.03.166.167.271.364.301.47.06.924 0 1.333-.135.197-.06.288-.212.288-.468-.136-2.129-.136-3.609-.045-4.394.182-1.51.697-2.687 1.546-3.517.621-.498 1.121-.71 1.47-.634.303.075.455.317.455.725 0 .392-.137.724-.41 1.026-.333.332-.712.453-1.182.332-.273-.03-.394.06-.364.212.03.166.152.302.395.437.757.438 1.636.634 2.667.604 1.47-.075 2.865-.68 4.153-1.857.076-.075.106-.075.106.015.015.665.152 1.118.44 1.404.363.363 1.045.514 2.03.453.728-.105 1.32-.241 1.728-.453.652-.301 1.304-.77 1.94-1.449.076-.075.122-.075.122.03.09.77.545 1.329 1.379 1.706.758.348 1.561.438 2.486.287.94-.15 1.621-.543 2.046-1.132.515-.71.53-1.555.076-2.582l1.273-.211c.47 1.238.91 2.264 1.349 3.095.242.483.545.724.924.724.349 0 .667-.196.955-.603l1.334-1.57c.303-.363.515-.378.712-.03.56.77.97 1.313 1.243 1.584.546.755 1.5.695 2.88-.15.758-.514 1.424-1.193 2-2.008.182-.348.137-.544-.106-.634-.257-.091-.56 0-.91.256l-1.06.665c-.455.226-.864.105-1.197-.333l-1.486-1.902c-.197-.211-.424-.347-.712-.377-.334-.03-.652.105-.985.392l-1.107 1.178c-.288.347-.5.347-.651 0l-.592-1.253c-.166-.317-.56-.453-1.151-.363-1.85.393-3.168.635-3.971.665l-.758.09c-.182.121-.152.363.06.77.228.514.152 1.102-.242 1.706-.152.257-.364.378-.622.347-.272-.015-.5-.226-.636-.603-.258-.65-.167-1.284.258-1.872.197-.287.44-.499.788-.635.318-.09.5-.241.515-.437 0-.197-.258-.287-.758-.287-1.106-.06-2.091.423-2.94 1.494-.804.952-1.728 1.646-2.774 2.084-.652.332-1 .211-.985-.363l-.015-2.385c.015-.226 0-.362-.076-.407l-.606-.121a7.454 7.454 0 0 0-1.637.03c-.349.045-.53.181-.53.438v.92c-.289.469-.728.891-1.334 1.299-.667.483-1.304.725-1.88.755l-.227-.015c-.076-.03-.06-.166.06-.378.622-1.072.5-1.887-.333-2.49-.788-.59-1.758-.68-2.85-.303-.954.348-1.712.967-2.318 1.827l-.076.06-.015-1.826c0-.196-.106-.287-.319-.317a4.584 4.584 0 0 0-1.197.015c-.151-.015-.258.06-.333.241-.485 1.042-1.092 1.812-1.789 2.31-.242.166-.424.242-.53.242-.091-.015-.228-.121-.38-.287a65.813 65.813 0 0 1-1.833-2.053c-.212-.287-.455-.423-.728-.438-.272 0-.545.136-.788.438l-1.273 1.6c-.182.287-.379.287-.53.045l-1.243-1.645a1.006 1.006 0 0 0-.682-.438c-.319-.045-.607.09-.91.423l-1.182 1.555-.348.317c-.091.015-.228-.09-.395-.317l-1.045-1.42c-.516-.694-1.092-.74-1.713-.12l-2.167 2.113c-.319.302-.561.287-.758-.06l-1.137-1.45c-.136-.15-.333-.21-.591-.18-.303.03-.5.21-.56.558-.046 1.012-.38 1.6-.986 1.812-.364.105-.652.075-.819-.151-.151-.197-.181-.453-.12-.785.181-.8.712-1.329 1.606-1.63.242-.076.379-.197.379-.378"/>
    </g>
</svg>
