<svg width="36" height="24" viewBox="0 0 36 24" xmlns="http://www.w3.org/2000/svg" xmlns:xlink="http://www.w3.org/1999/xlink">
    <defs>
        <path id="ddck6ndw1a" d="M.05.007h3.227v3.961H.05z"/>
    </defs>
    <g fill="none" fill-rule="evenodd">
        <path fill="#000" fill-rule="nonzero" d="m13.41 13.264-.015-3.58 3.47-1.27-3.495-1.131-.073-3.527-2.12 2.846-3.468-1.056 2.013 2.987-1.965 2.992 3.423-1.12z"/>
        <path fill="#000" fill-rule="nonzero" d="m13.865 0 7.322 8.506-7.344 8.52h6.216L27.85 8.52 20.022 0zM0 21.606c0-1.105.947-2.193 2.24-2.193.882 0 1.87.981 1.87.981l-1.071.616s-.177-.462-.838-.462c-.671 0-1.066.545-1.071 1.04a1.04 1.04 0 0 0 1.032 1.038c.455 0 .935-.481.935-.481l.916.654s-.685.827-1.831.827c-1.148 0-2.182-.684-2.182-2.02M6.68 20.529c.603 0 1.092.475 1.092 1.06 0 .584-.49 1.055-1.092 1.055-.602 0-1.088-.471-1.088-1.056 0-.584.486-1.06 1.088-1.06m0-1.059c-1.205 0-2.18.95-2.18 2.12 0 1.168.975 2.115 2.18 2.115s2.184-.947 2.184-2.116c0-1.168-.979-2.119-2.184-2.119M9.683 19.53v3.96h1.05v-2.14l1.733 2.14h1.035v-3.96h-1.054v2.314l-1.714-2.315zM14.358 19.53l1.418 3.96h1.562l1.418-3.96h-1.149l-1.05 3.144-1.05-3.145zM19.51 19.53v3.96h3.227v-.913h-2.176v-.663h1.956v-.809h-1.956v-.632h2.176v-.944z"/>
        <g transform="translate(32.464 19.522)">
            <mask id="hm6buzla0b" fill="#fff">
                <use xlink:href="#ddck6ndw1a"/>
            </mask>
            <path fill="#000" fill-rule="nonzero" mask="url(#hm6buzla0b)" d="M.05.007v3.961h3.227v-.913H1.1v-.663h1.957v-.809H1.1V.95h2.177V.007z"/>
        </g>
        <path d="M24.838 20.548h1.077c.374 0 .35.572 0 .572h-1.077v-.572zm-.914-.944v3.905h.933V21.97h.534l.82 1.54h1.201l-.811-1.67c1.055-.625.846-1.933-.33-2.236h-2.347zM27.973 22.962c.041.245 1.019.708 1.983.708.886 0 1.598-.42 1.598-1.254 0-1.026-1.212-1.263-1.212-1.263s-1.007-.014-1.033-.476c-.012-.217.295-.34.565-.34.442 0 .936.435.936.435l.703-.748s-.889-.694-1.64-.694c-.716 0-1.735.464-1.735 1.429 0 .82 1.18 1.198 1.18 1.198s1.244.131 1.244.516c0 .261-.45.34-.716.34-.643 0-1.185-.558-1.185-.558l-.688.707z" fill="#000" fill-rule="nonzero"/>
    </g>
</svg>
