<svg width="58" height="24" viewBox="0 0 58 24" xmlns="http://www.w3.org/2000/svg">
    <path d="M52.637 8.834c.318-.26.605.465.35 1.017-.244.527-1.553 2.636-1.552 3.342.003.152.052.317.132.486 1.288-1.666 3.496-4.137 4.642-4.207.414-.023 1.72.515 1.726 2.75.007 2.236-2.654 4.828-5.055 4.837-.117 0-.227-.007-.335-.02-.237 1.01-.918 3.369-1.343 4.66-.301.902-.354 2.225-.584 2.276-.603.135-1.612-.86-1.63-1.869-.036-1.956 1.038-5.18 1.479-6.628a3.839 3.839 0 0 1-.405-1.654c-.006-2.16 1.958-4.479 2.575-4.99zM5.32.006c8.48-.24 18.222 6.8 18.236 11.697.012 3.651-3.936 6.315-8.853 6.33-1.262.003-2.45-.16-3.546-.444-.073.548-.312 1.07-1.012 1.072-.965.003-1.173-.753-1.23-1.853-3.39-1.494-5.485-3.947-5.485-4.92-.004-1.19 2.602-2.398 5.531-2.845.057-1.4.254-3.937.934-3.939.818-.004 1.032 2.302 1.082 3.763.077-.001.152-.004.225-.004 5.223-.015 6.827 1.526 6.83 2.826.004.981-1.097 1.603-1.193 1.593-.544-.038-1.169.012-1.172-.27 0-.376.677-.645.677-1.04-.004-.461-2.554-1.159-4.502-1.15-.244 0-.526.001-.83.005.031 1.569.1 4.047.139 5.232.86.168 1.766.266 2.7.263 2.627-.006 7.393-.84 7.38-4.55C21.22 6.994 11.986 1.364 3.967 1.386c-.934.005-2.805.086-2.805.44 0 .304.485.242.485.548.002.214-.33.246-.695.246-.362.002-.964-.043-.951-.562.013-.535.467-.865.827-1.257C1.232.357 3.057.07 5.321.006zm42.676 8.882c1.144-.128 2.07.957 1.995 1.218-.075.263-.3.428-.603.506-.183.046-2.632.114-3 .269-.182.077-.295.834-.209.982.091.151 1.705.154 1.961.178.513.042.67 1.176-.16 1.222-.29.018-2.068-.01-2.354.083-.288.095-.57 1.427-.42 1.565.152.136 2.43-.377 2.837-.377.407-.002.984.458.938.853-.027.263-1.916 1.748-4.024 1.819-1.332.042-1.815-1.426-1.818-2.09 0-.43.404-1.459.54-1.961.043-.17-.183-.382-.17-.52.058-.596.906-.66.979-.875.069-.195.254-.827.224-.997-.03-.166-1.224-.409-1.225-1.02-.003-.65 2.546-.639 4.51-.855zm-22.68.1c.648 0 .95.866 1.054 5.352.058 2.369-.17 2.45-.836 2.451h-.03c-.723-.007-1.125-.372-1.067-3.164.027-1.24.048-4.634.879-4.638zm6.85-.159c1.12-.004 3.108-.014 3.111.771.003 1.315-6.383.603-6.395 1.565-.004.293 1.385.358 2.673.466 1.721.15 3.695.387 3.7 2.5.003.87-.734 2.556-3.662 2.563-2.967.012-4.027-1.534-4.029-2.19-.005-1.263 1.188-1.609 2.018-1.613.788 0 3.343.31 3.344.95.002.349-.638.695-1.409.698-.769.004-1.888-.697-2.432-.697-.542.004-.782.37-.781.583 0 .216.032.645 1.481.64.703-.003 4.118-.388 4.114-1.345 0-.428-1.568-.852-2.856-.984-1.584-.163-3.966.235-3.97-1.395-.009-2.408 4.252-2.51 5.093-2.512zm7.98-1.019c.964-.002 2.619 3.092 2.627 5.624.001 1.1-.67 2.8-1.818 2.803-1.056.006-2.954-3.967-3.3-3.967-.468 0 .135 4.346-1.03 4.35-.784 0-.968-.717-.97-1.788-.004-1.071.529-5.418 1.537-5.346.982.073 3.333 4.427 3.606 4.35.175-.05.194-.46.194-.687-.004-1.103-1.129-3.977-1.133-4.802 0-.275.044-.537.287-.537zM8.92 10.895c-2.366.12-4.922.442-4.921 1.296.003.55 1.982 2.206 4.892 3.246-.003-1.286.013-3.205.029-4.542zm47.414.17c-.519-.01-1.925 2.24-2.889 3.937 1.415.025 3.395-1.353 3.39-3.012-.003-.553-.138-.92-.501-.924zM27.133 1.608c.926-.002 1.55.458 1.97.868 1.006.144 1.408.55 1.41 1.34.005 1.76-2.923 3.879-4.765 3.883a4.945 4.945 0 0 1-1.489-.197c-.134.259-.35.466-.714.466-.323.002-.561-.265-.576-1.266a2.34 2.34 0 0 1-.56-1.515c-.002-1.257 1.857-3.57 4.724-3.58zm1.47 1.833c-.966.003-2.931 1.759-3.745 2.69.3.093.658.149 1.083.149 1.025-.003 3.406-.966 3.404-2.138 0-.195-.108-.703-.742-.701zm-2.528-.292c-1.617.273-2.435 1.15-2.432 1.715 0 .087.016.18.046.277.604-.732 1.505-1.469 2.386-1.992z" fill="#1F1F1F" fill-rule="nonzero"/>
</svg>
