<svg width="60" height="20" viewBox="0 0 60 20" xmlns="http://www.w3.org/2000/svg">
    <path d="M22.126.199c1.445 0 2.61 1.211 2.61 2.656l.046 14.448a2.606 2.606 0 0 1-2.61 2.61h-.326c-1.445 0-2.563-1.165-2.563-2.61l-.047-14.448c0-1.445 1.119-2.656 2.61-2.656h.28zm-8.436 7.41a2.606 2.606 0 0 1 2.61 2.61v.14a2.606 2.606 0 0 1-2.61 2.61H6.28c-.373 0-.7.326-.7.699v3.635a2.606 2.606 0 0 1-2.61 2.61h-.325a2.606 2.606 0 0 1-2.61-2.61v-7.27c0-1.398 1.305-2.424 2.75-2.424H13.69zM29.816.245a2.606 2.606 0 0 1 2.61 2.61v10.673c0 .372.28.699.699.699h5.033c.886 0 1.398-.327 1.865-1.119L46.78 1.923C47.433.85 48.458.292 49.67.292c1.165 0 2.097.513 2.796 1.631l5.826 9.508c1.305 2.05 1.585 2.563 1.585 4.101 0 2.377-2.19 4.195-4.102 4.195H47.9c-1.445 0-2.61-.979-2.61-2.424v-.14a2.606 2.606 0 0 1 2.61-2.61h4.847c.28 0 .466-.046.56-.233.093-.233.046-.326-.094-.559l-3.449-5.546c-.046-.094-.093-.233-.186-.233-.14 0-.187.14-.233.233l-5.267 9.041c-.839 1.445-1.818 2.47-3.216 2.47H30.748c-1.958 0-3.868-1.864-3.868-3.821V2.855a2.606 2.606 0 0 1 2.61-2.61h.326zM14.995.618c1.445 0 2.61 1.119 2.61 2.563v.187a2.606 2.606 0 0 1-2.522 2.608l-.088.002H2.69c-1.445 0-2.656-1.165-2.656-2.61v-.187C.035 1.737 1.247.618 2.69.618h12.304z" fill="#1F1F1F" fill-rule="nonzero"/>
</svg>
