<svg width="76" height="16" viewBox="0 0 76 16" xmlns="http://www.w3.org/2000/svg">
    <path d="M72.179 8.356c-.213-.312-.255-.312-1.274-.578-.934-.267-1.91-.534-2.845-.8-.637-.178-.721-.311-.764-.8 0-.178-.042-.4-.042-.756-.043-.31 0-.4.254-.533.17-.089.722-.445.977-.578.297-.178.51-.089.892.045.17.088.764.31.976.444.212.089.212.133.425.667.127.222.297.177.467.133.17-.089.849-.489 1.019-.533.297-.178.34-.311.254-.445-.127-.222-.17-.266-.297-.4-.127-.178-.212-.266-.424-.533-.255-.311-.213-.311-.765-.4-.382-.089-1.868-.4-2.292-.489-.255-.044-.382 0-.637.089-.255.133-1.274.578-1.529.711-.637.311-.764.311-.806.489-.128.222-.085.133-.34.711-.34.711-.425.844-.382 1.067.127.4.382 1.066.552 1.644.212.622.212.711 1.4 1.022.68.178 2.76.756 3.015.845.425.133.467.222.637.622.085.178.17.444.255.622.085.267.212.49.17.845-.085.4-.467.489-.68.622-.254.133-.806.444-1.103.578-.383.177-.425.222-.977-.045-.467-.222-.594-.31-.934-.489-.212-.089-.17-.089-.34-.266-.127-.178-.34-.4-.51-.578-.254-.311-.424-.222-.678-.089-.213.133-1.02.533-1.19.667-.17.089-.17.31-.084.4.297.31.594.577.891.889.34.31.595.577.934.666.595.178 1.656.445 2.336.622.849.223.637.178 1.358-.133.255-.089 1.614-.667 1.953-.844.383-.223.425-.267.637-.934.085-.355.34-1.289.425-1.6.085-.4.127-.71-.085-1.022-.085-.311-.637-1.244-.85-1.555zm-35.41-2.09H35.41c-.382 0-.552.09-.552.534v6.622c0 .311.17.534.467.534h.722c.34 0 .51-.178.552-.534.127-1.644.552-6.578.552-6.8.042-.178-.128-.355-.382-.355zm-.68-3.688c-.764 0-1.358.622-1.358 1.422 0 .8.594 1.422 1.358 1.422.765 0 1.359-.622 1.359-1.422 0-.8-.594-1.422-1.359-1.422zm25.56 8.8c-.127.044-1.019.533-1.528.8-.213.089-.467.089-.637 0-.128-.045-.552-.311-.764-.4-.213-.09-.298-.311-.34-.578 0-.133-.085-.978-.085-1.467-.042-.177.042-.489.212-.666.085-.09.467-.311.68-.4.254-.178.594-.311.764-.356.255-.133.51-.089 1.061.089.128.044.552.178.68.222.17.134.17.311.17.445v1.866c0 .178-.043.356-.213.445zm3.015 1.866a8.697 8.697 0 0 0-.807-.71.413.413 0 0 1-.127-.312l.552-6.4c.042-.489-.085-.844-.425-1.244-.382-.4-.764-.89-.85-.934-.381-.355-.848-.577-1.4-.577-.722 0-1.953-.045-2.08-.045-.51 0-.807.045-1.274.356-.383.266-.85.578-.935.622-.254.222-.424.4-.467.711-.085.489-.212 1.245-.212 1.333-.042.356.085.49.34.49.085 0 .891-.045 1.316-.09.255 0 .382-.088.51-.444.042-.089.254-.8.382-1.156.085-.266.212-.355.424-.4.255-.044.51-.088.807-.133.255-.044.382 0 .594.133.085.045.595.4.637.445.085.044.255.267.255.489 0 .089.042 1.6.042 1.6s0 .266-.297.178c-.424-.134-1.443-.534-1.91-.4-.298.044-.85.266-.977.355-.425.178-.892.4-1.316.622-.552.267-.722.445-.807.534-.34.31-.34.755-.382 1.11-.042.623-.127 2-.127 2.134 0 .489.17.889.552 1.2a68.262 68.262 0 0 0 1.4 1.111c.383.311 1.062.311 1.402.134.722-.4 2.208-1.2 2.25-1.2.043-.045.085 0 .127.044 0 .044.043.089.043.133 0 .09.085.178.17.223.34.31 1.019.933 1.061.977.255.223.467.223.68.09.551-.312.806-.49.849-.534.254-.133.17-.267 0-.445zM53.879 3.911c-.212-.267-.51-.311-.764-.311-.637 0-1.486.044-1.783.089-.467.044-.68.133-.892.4-.212.267-.552.667-.637.711-.297.311-.34.178-.34-.178 0-.178.043-.755.086-1.022.042-.444-.213-.533-.552-.533h-1.104c-.68 0-.807 0-.807.844 0 .622.042 7.111.042 9.067 0 .355.213.578.468.578h1.019c.17 0 .382-.223.424-.623.085-1.555.34-5.822.382-6.089.043-.31.17-.533.34-.71.34-.267.764-.578.892-.712a.827.827 0 0 1 .551-.178h.807c.17 0 .34.045.467.134.17.089.425.4.51.489.127.133.212.222.212.489 0 1.422.085 6.177.085 6.533 0 .4.127.622.34.622h.806c.255 0 .382-.178.425-.489.17-1.466.51-5.91.594-6.4.085-.8-.042-.978-.424-1.466-.51-.445-.85-.89-1.147-1.245zm-10.232 6.933c0 .356 0 .534-.255.667-.127.045-.891.489-1.358.756a.85.85 0 0 1-.807.044 3.96 3.96 0 0 1-.722-.4c-.212-.133-.382-.355-.382-.622 0-.356-.085-1.156-.085-1.467 0-.31.085-.533.425-.755.17-.09.849-.445 1.061-.578.297-.133.68-.178.85-.133.127.044.806.222 1.018.31.212.045.255.312.255.534v1.644zm7.642 1.467c-.297 0-.594.045-.891.045-.297.044-.467.088-.51.622-.085.622-.042.978-.594 1.2-.51.222-.722.266-.977.31-.467.045-.594.09-1.019 0-.594-.132-.849-.31-1.146-.888-.085-.133-.255-.444-.467-.978a1.368 1.368 0 0 1-.085-.444c.085-1.111.212-6.178.212-6.311.043-.49.085-.845-.254-1.245-.383-.4-.807-.889-.892-.978-.34-.355-.68-.444-1.274-.444-.722 0-2.165-.044-2.25-.044-.51 0-.467-.045-.892.222-.424.266-1.061.71-1.231.844-.297.178-.382.4-.425.667-.042.4-.17.889-.212 1.333-.042.356.085.49.382.49.085 0 .85-.045 1.316-.09.255 0 .425-.089.51-.444.042-.09.255-.711.382-1.111.085-.267.212-.445.467-.49.382-.044.425-.088.68-.133.424-.044.509 0 .679.09.085.044.382.266.637.444.17.133.34.266.297.622 0 .089.042.978 0 1.156 0 .177.085.577-.212.577-.383-.044-.765-.31-1.529-.4-.127 0-.425-.089-.68 0-.339.134-.976.356-1.06.4-.595.267-.723.356-1.444.711-.51.267-.722.578-.807 1.156-.085.622-.127 2.267-.127 2.356-.043.577.212 1.022.594 1.333.552.444 1.189.933 1.316 1.022.382.267.977.4 1.444.133.68-.355 2.08-1.11 2.123-1.11.042 0 .17-.134.212-.045 0 .044.085.222.085.267.042.088.127.177.17.266.34.356.637.711.934 1.022.68.712.764.8 1.57.978.85.222.935.222 1.105.267.17.044.297.133 1.528-.045 1.231-.222 1.316-.222 1.444-.266.127-.045.637-.09.849-.934.212-.888.297-1.377.34-1.555.042-.222.212-.622-.298-.578zM74.6 5.378c-.637 0-1.062-.534-1.062-1.156 0-.71.467-1.2 1.062-1.2.594 0 1.019.49 1.019 1.2 0 .667-.425 1.156-1.02 1.156zm0-2.622c-.722 0-1.359.577-1.359 1.422 0 .8.552 1.422 1.359 1.422.722 0 1.316-.578 1.316-1.422 0-.845-.594-1.422-1.316-1.422zM7.218 4.266c-.297-.444-.467-.444-1.062-.444-.084 0-1.316 0-1.74.045-.467 0-.765.133-1.062.355-.212.134-.594.667-.637.711-.042.045-.085.178-.17.134-.084 0-.084-.09-.084-.267.042-.667.212-3.422.254-4.311C2.76.222 2.632 0 2.293 0 2.208 0 .977.044.425.044.17.044 0 .267 0 .534c0 .133.127 11.11.17 12.888 0 .134.085.222.255.222h1.358c.128 0 .213-.088.213-.177 0-.09.254-4.4.34-5.867 0-.533.211-1.156.424-1.333.297-.223.594-.49.849-.711.212-.134.34-.134.51-.134h.806c.255 0 .255.045.467.178.085.089.255.178.382.311.213.178.34.311.298.622 0 .09.127 5.29.17 6.534 0 .355.042.622.381.622h.935c.34 0 .34-.267.382-.578 0-.089.254-5.244.382-6.578.042-.577-.043-.844-.297-1.2-.128-.133-.51-.622-.807-1.066zm67.084-.133V3.69h.297c.127 0 .34.044.34.222 0 .222-.17.267-.34.267 0-.045-.297-.045-.297-.045zm.891-.222c0-.311-.17-.444-.552-.444h-.552v1.6h.255v-.711h.212l.383.666h.297l-.425-.71c.212 0 .382-.134.382-.4zM31.08 11.378c-.127.044-1.019.533-1.528.8-.212.089-.467.089-.637 0-.127-.045-.552-.311-.764-.4-.213-.09-.297-.311-.34-.578-.042-.133-.085-.978-.085-1.467-.042-.177.043-.489.212-.666.085-.09.51-.311.68-.4.255-.178.594-.311.764-.356.255-.133.51-.089 1.061.089.128.044.552.178.68.222.17.134.17.311.17.445v1.866c0 .178-.043.356-.213.445zm3.015 1.822a8.697 8.697 0 0 0-.807-.711.413.413 0 0 1-.127-.311c.085-1.156.552-6.267.552-6.4.042-.49-.085-.845-.425-1.245-.382-.4-.764-.844-.849-.933a1.944 1.944 0 0 0-1.401-.578c-.722 0-1.953-.044-2.08-.044-.51 0-.807.044-1.274.355-.382.267-.85.578-.934.623-.255.177-.425.4-.467.71-.085.49-.213 1.245-.213 1.334-.042.356.085.489.34.489.085 0 .892-.045 1.316-.089.255 0 .382-.089.51-.444.042-.09.254-.8.382-1.156.085-.267.212-.356.424-.4.255-.044.51-.089.807-.133.255-.045.382 0 .594.133.085.044.595.4.637.444.085.045.255.267.255.49 0 .088.043 1.6.043 1.6s0 .266-.298.177c-.424-.133-1.443-.533-1.91-.4-.297.045-.85.267-.977.356-.34.133-.807.355-1.316.622-.552.267-.722.444-.807.533-.34.311-.34.756-.382 1.111-.042.623-.127 2-.127 2.134 0 .489.17.889.552 1.2a68.263 68.263 0 0 0 1.4 1.11c.383.312 1.062.312 1.402.134.764-.4 1.486-.8 2.25-1.2.043 0 .085 0 .128.045 0 .044.042.088.042.133 0 .089.085.178.17.222.34.311 1.019.933 1.061.978.255.222.467.222.68.089.552-.311.806-.49.849-.534.255-.088.17-.222 0-.444zM14.52 11.378c-.128.044-1.02.533-1.529.8-.212.089-.467.089-.637 0-.127-.045-.552-.311-.764-.4-.212-.09-.297-.311-.34-.578 0-.133-.085-.978-.085-1.467-.042-.177.043-.489.213-.666.085-.09.51-.311.68-.4.254-.178.594-.267.763-.356.255-.133.51-.089 1.062.089.127.044.552.178.68.222.169.134.169.311.169.445v1.866a.395.395 0 0 1-.212.445zm3.014 1.866a8.697 8.697 0 0 0-.807-.71.413.413 0 0 1-.127-.312c.085-1.155.552-6.266.552-6.4.043-.489-.085-.844-.425-1.244-.382-.4-.764-.89-.849-.934a1.944 1.944 0 0 0-1.4-.577c-.723 0-1.954-.045-2.081-.045-.51 0-.807.045-1.274.356-.382.266-.85.578-.934.622-.255.178-.425.4-.467.711-.085.489-.212 1.245-.212 1.333-.043.356.085.49.34.49.084 0 .89-.045 1.315-.09.255 0 .383-.088.51-.444.042-.089.255-.8.382-1.156.085-.266.212-.355.425-.4.297-.044.721-.088.806-.133.255-.044.383 0 .595.133.085.045.594.4.637.445.085.044.254.267.254.489 0 .089.043 1.6.043 1.6s0 .266-.297.178c-.425-.134-1.444-.534-1.91-.4-.298.044-.85.266-.977.355-.34.133-.807.356-1.317.622-.552.267-.721.445-.806.534-.34.31-.34.755-.383 1.11-.042.623-.127 2-.127 2.134 0 .489.17.889.552 1.2a68.262 68.262 0 0 0 1.401 1.111c.382.311 1.062.311 1.401.134.765-.4 1.486-.8 2.25-1.2.043 0 .086 0 .128.044 0 .044.042.089.042.133 0 .09.085.178.17.223.34.31 1.02.933 1.062.977.254.223.467.223.679.09.552-.312.807-.49.85-.534.296-.133.211-.267 0-.445zm7.728-10.133h-.892c-.255 0-.51.178-.552.445-.425 1.555-1.996 7.2-2.08 7.422-.085.222-.255.222-.298 0-.042-.222-1.23-7.2-1.273-7.422-.043-.223-.128-.4-.51-.445h-1.486c-.382 0-.594.089-.51.445.085.31 1.869 7.777 2.336 9.733a.554.554 0 0 0 .637.4c.212-.045.424-.045.637-.089.297-.044.551-.044.849.044.127.045.254.045.34.09.212.044.424-.178.509-.49.042-.222 2.038-7.51 2.59-9.466.127-.4-.043-.667-.297-.667z" fill="#000" fill-rule="nonzero"/>
</svg>
