<svg width="60" height="24" viewBox="0 0 60 24" xmlns="http://www.w3.org/2000/svg">
    <path d="M60 0v24H0V0h60zM17.253 1.917l-2.798 18.535.001-18.533H9.807L8.131 12.33 6.5 1.92H1.848v20.15H5.51v-9.712l1.666 9.712h1.947l1.642-9.712v9.712h7.06l.428-3.1h2.843l.427 3.1 6.932.004h.005v-.004h.009v-6.54l.85-.124 1.758 6.668h3.586l-.001-.004h.01l-2.309-7.814c1.17-.861 2.491-3.045 2.14-5.134V9.12l2.178 12.962 4.265-.013L43.86 3.806V22.07h6.914v-3.624h-3.282v-4.62h3.282v-3.68h-3.282V5.594h3.282V1.92H40.49l-1.694 12.274L37.124 1.92h-3.71l.416 3.277c-.428-.84-1.946-3.277-5.288-3.277h-3.714l-.014 17.89-2.704-17.89-4.857-.002zm37.787 0h-3.632v20.15h6.745v-3.624H55.04V1.916zM19.692 7.16l1.043 8.616h-2.05l1.007-8.616zm11.221 1.564c0 1.631-.728 2.66-1.582 3.074a2.012 2.012 0 0 1-.861.202V5.52l.018-.001h.023c.362.004 2.402.157 2.402 3.205z" fill="#1F1F1F" fill-rule="nonzero"/>
</svg>
