<svg width="48" height="24" viewBox="0 0 48 24" xmlns="http://www.w3.org/2000/svg">
    <g fill="#1F1F1F" fill-rule="nonzero">
        <path d="M25.872.136c-.154.022-.306.6-.608.897-.222.216-.492.204-.646.474-.053.097-.034.27-.094.428-.129.328-.559.362-.564.712 0 .39.363.463.68.734.252.218.268.37.562.473.26.09.64-.192.978-.09.28.082.551.141.61.43.055.263 0 .673-.345.628-.112-.016-.607-.178-1.215-.113-.736.078-1.576.316-1.657 1.134-.043.457.521.992 1.07.885.376-.073.2-.517.404-.732.27-.276 1.798.964 3.218.964.601 0 1.047-.152 1.49-.618.039-.029.093-.104.157-.111a.625.625 0 0 1 .196.09c1.148.916 2.014 2.756 6.222 2.779.59.007 1.266.284 1.821.793.486.442.775 1.15 1.053 1.864.423 1.076 1.178 2.115 2.325 3.273.06.07 1.004.797 1.075.851.012.01.085.171.053.26-.018.705-.124 2.727 1.388 2.812.37.021.276-.236.276-.418-.004-.349-.064-.7.116-1.063.257-.49-.534-.725-.517-1.795.02-.8-.654-.664-.998-1.275-.194-.35-.373-.545-.355-.967.074-2.432-.524-4.033-.815-4.42-.233-.301-.43-.413-.212-.552 1.26-.834 1.548-1.608 1.548-1.608.669-1.574 1.273-3.009 2.105-3.646.17-.123.597-.45.864-.573.775-.37 1.19-.59 1.41-.804.36-.346.642-1.076.297-1.513-.424-.544-1.163-.108-1.489.083-2.318 1.375-2.66 3.796-3.466 5.186-.636 1.112-1.676 1.93-2.618 1.994-.696.05-1.45-.085-2.2-.414-1.833-.798-2.822-1.83-3.061-2.013-.493-.377-4.292-4.102-7.386-4.253 0 0-.378-.766-.472-.78-.227-.026-.458.462-.627.512-.152.054-.418-.523-.573-.498M12.297 22.371a.547.547 0 0 1-.54-.532l.003-9.594H8.59v10.57c0 .52.42.94.932.94h5.548a.94.94 0 0 0 .94-.94v-10.57h-3.175v9.594c0 .29-.25.522-.538.532M22.909 12.245h-4.794c-.567 0-1.027.456-1.027 1.033v10.478h3.168V14.14a.542.542 0 0 1 .539-.528c.289 0 .535.228.54.524v9.619h3.16v-9.619a.53.53 0 0 1 .537-.524.54.54 0 0 1 .541.528v9.615h3.167V13.278c0-.577-.455-1.033-1.027-1.033h-4.804zM4.348 14.158a.54.54 0 0 0-.539-.54h-.542v5.823h.542a.54.54 0 0 0 .54-.546v-4.737zm2.129 6.706h-3.21v2.892H.103v-11.51h6.39c.578 0 1.02.455 1.02 1.032v6.55c0 .573-.465 1.036-1.036 1.036z"/>
        <path d="M34.065 19.44v-5.3a.54.54 0 0 0-.539-.52.548.548 0 0 0-.544.528v5.292h1.083zm0 4.316v-2.89h-1.074v2.89h-3.172V13.278c0-.575.461-1.033 1.033-1.033h5.349a1.03 1.03 0 0 1 1.036 1.033v10.478h-3.172zM38.605 22.69a.545.545 0 0 0-.53.55c0 .304.244.548.54.548a.541.541 0 0 0 .536-.548c0-.303-.239-.55-.536-.55h-.01zm.647.545a.64.64 0 1 1-1.282 0 .641.641 0 0 1 1.282 0z"/>
        <path d="M38.696 23.312c.19 0 .29-.05.29-.143 0-.085-.1-.13-.284-.13h-.053v.273h.047zm.691.558h-.325l-.413-.396v.396h-.268v-1h.284c.372 0 .574.1.574.294 0 .13-.118.245-.284.279l-.016.005.448.422z"/>
    </g>
</svg>
