<svg width="48" height="24" viewBox="0 0 48 24" xmlns="http://www.w3.org/2000/svg" xmlns:xlink="http://www.w3.org/1999/xlink">
    <defs>
        <path id="6dz1telawa" d="M0 .07h38.33v12.527H0z"/>
    </defs>
    <g fill="none" fill-rule="evenodd">
        <path d="M36.883 1.656c-2.223 0-3.716 1.316-3.716 3.274 0 1.868 1.598 3.276 3.716 3.276 2.19 0 3.72-1.347 3.72-3.276 0-1.958-1.495-3.274-3.72-3.274m0 4.938a1.682 1.682 0 0 1-1.685-1.677c0-.917.756-1.664 1.684-1.664.926 0 1.678.747 1.678 1.664a1.68 1.68 0 0 1-1.678 1.677M29.39 1.756h-1.337v1.69l.907.004c.737 0 1.336.633 1.336 1.412 0 .957-.775 1.422-1.3 1.435h-1.658V0h-2.055v7.99h3.699c1.635 0 3.386-1.228 3.386-3.057 0-1.99-1.514-3.177-2.977-3.177M10.864 4.874c0-.79.641-1.434 1.428-1.434h1.628l-1.314 2.18h1.963l1.32-2.054V1.76l-3.92.005a3.11 3.11 0 0 0-3.102 3.113A3.11 3.11 0 0 0 11.97 7.99h3.933V6.308h-3.61a1.433 1.433 0 0 1-1.428-1.434M5.015 0H0v7.99h1.992V1.744l2.585.003c.709 0 1.466.376 1.466 1.426 0 .804-.57 1.413-1.367 1.413H2.683v1.664H4.08c1.2.049 1.73.596 1.737 1.774v1.71h2.09V7.456c0-1.205-.858-1.818-1.684-2.024C7.52 4.996 8.16 3.993 8.16 2.776 8.16 1.06 6.528 0 5.015 0M46.154 4.663c1.383-.431 1.777-1.185 1.783-2.683v-.231h-2.032v.338c0 1.004-.43 1.723-1.381 1.723h-.967V0h-2.063v7.99h2.063V5.5h.74c1.026 0 1.653.587 1.653 1.513v.978H48V7.08c0-1.194-.534-2.057-1.846-2.417M18.876 4.874c0-.79.64-1.434 1.428-1.434h1.627l-1.314 2.18h1.963l1.321-2.054V1.76l-3.92.005a3.11 3.11 0 0 0-3.102 3.113A3.11 3.11 0 0 0 19.98 7.99h3.933V6.308h-3.61a1.433 1.433 0 0 1-1.427-1.434M30.733 16.543c5.276-2.1 8.561-3.31 17.267-5.415-4.725.31-15.184 1.025-22.391 2.424l5.124 2.991M14.326 23.503h6.896c1.366-2.058 2.725-3.061 4.308-4.178-1.198-.46-2.402-.905-3.626-1.335-4.404 1.933-6.853 4.528-7.578 5.513M15.69 16.015c-6.148 2.187-9.572 4.562-11.88 7.488h7.617c.743-1.028 3.57-3.99 8.88-6.05-1.464-.493-4.01-1.284-4.617-1.438" fill="#000" fill-rule="nonzero"/>
        <g transform="translate(2 11.34)">
            <mask id="4dstguu7hb" fill="#fff">
                <use xlink:href="#6dz1telawa"/>
            </mask>
            <path d="M16.847.07H0C16.985 3.122 25.17 7.046 38.33 12.596 37.205 11.76 19.066 1.134 16.847.069" fill="#000" fill-rule="nonzero" mask="url(#4dstguu7hb)"/>
        </g>
    </g>
</svg>
