<svg width="58" height="24" viewBox="0 0 58 24" xmlns="http://www.w3.org/2000/svg">
    <path d="M27.018 12.375a.152.152 0 0 1 .134.104S30.8 23.73 30.8 23.748c0 .056-.048.099-.106.099H26.504a.108.108 0 0 1-.068-.077l-.507-1.517a.115.115 0 0 0-.097-.068l-3.928.003a.112.112 0 0 0-.098.065l-.495 1.517a.107.107 0 0 1-.068.076l-4.258.001a.104.104 0 0 1-.106-.102c0-.02 3.561-11.266 3.561-11.266a.151.151 0 0 1 .135-.104h6.443zm-21.99 0c.02.002.034.017.036.036l.916 2.96c.003.019.02.034.041.034.024 0 .037-.016.042-.04l.865-2.963a.043.043 0 0 1 .031-.027h4.913c.022 0 .038.02.042.038l.963 2.952c.003.02.023.04.044.04.024 0 .036-.015.042-.04l.92-2.95c.005-.022.019-.04.042-.04h4.448c.03.003.05.036.05.067 0 .012-3.61 11.35-3.61 11.35-.01.032-.031.054-.062.054h-3.97a.056.056 0 0 1-.054-.037L9.39 19.574c-.005-.021-.019-.039-.042-.039-.023 0-.033.014-.042.04l-1.37 4.217c-.007.026-.031.053-.055.055H3.943c-.032 0-.054-.022-.063-.055L.217 12.462l-.002-.02c0-.037.032-.067.07-.067h4.743zm52.74 0v3.719h-5.929a.112.112 0 0 0-.077.11c0 .034.017.064.042.084.213.214 1.237 1.251 1.495 1.548.288.332.962 1.056.962 2.47A3.476 3.476 0 0 1 53.23 22.8c-.238.228-1.11 1.044-2.678 1.044l-9.185.001s-1.428-.028-2.292-.863l-2.43-2.335s-.09-.056-.09 0v3.198H31.89c-.039 0-.073-.029-.073-.065V12.377h8.38c.054.001 1.528.046 2.697 1.015 1.19.987 1.29 2.114 1.29 2.75 0 .635-.14 1.821-1.3 2.685 0 0-.546.408-.814.531 0 0-.09.044-.09.114 0 .038.05.31.765.313h5.872c.08 0 .146-.063.146-.14a.134.134 0 0 0-.038-.092s-1.05-1.03-1.467-1.523c0 0-.813-.997-.813-2.278 0-1.28.833-2.21 1.408-2.619.576-.407 1.578-.759 2.292-.759h7.623zm-33.859 3.549h-.004c-.01.001-.016.013-.046.111 0 0-.934 2.878-.934 2.902 0 .063.045.13.107.13h1.754c.059 0 .107-.067.107-.13 0-.024-.934-2.902-.934-2.902-.033-.109-.036-.111-.05-.111zm15.165-.305h-2.4s-.07.02-.07.095l.003 1.263c0 .076.07.095.07.095h2.616s.625-.086.625-.703-.566-.75-.844-.75zM49.432.054c.105.003 1.545.067 2.692 1.017 1.19.987 1.29 2.114 1.29 2.75 0 .636-.14 1.822-1.3 2.685 0 0-.546.408-.814.532 0 0-.089.044-.089.113 0 .038.05.31.764.314h5.793v4.06h-7.174c-.057 0-1.444-.045-2.29-.863l-2.43-2.334s-.09-.057-.09 0v3.198H41.12c-.039 0-.073-.029-.073-.066V.054h8.385zm-12.961 0a.146.146 0 0 1 .134.1s3.652 11.253 3.652 11.272c0 .056-.048.1-.106.1H35.96a.108.108 0 0 1-.068-.078l-.507-1.516a.113.113 0 0 0-.097-.065l-3.928-.001a.113.113 0 0 0-.097.065l-.496 1.517a.108.108 0 0 1-.068.078h-4.258a.104.104 0 0 1-.106-.102c0-.02 3.558-11.27 3.558-11.27a.144.144 0 0 1 .134-.1h6.443zm-8.462 0v3.738h-5.178v7.734h-4.265V3.773h-5.547a.112.112 0 0 0-.077.11c0 .034.017.064.042.085.213.214 1.238 1.245 1.495 1.542.288.332.962 1.063.962 2.476a3.475 3.475 0 0 1-1.031 2.496c-.238.228-1.111 1.044-2.679 1.044H.215V7.472h9.582c.08 0 .146-.063.146-.14a.135.135 0 0 0-.038-.092s-1.05-1.037-1.467-1.531c0 0-.813-.996-.813-2.277 0-1.281.833-2.211 1.408-2.62.576-.407 1.578-.758 2.292-.758h16.684zm5.357 3.548c-.009.001-.02.014-.05.111 0 0-.934 2.878-.934 2.903 0 .062.042.129.107.13h1.755c.063-.001.106-.068.106-.13 0-.025-.934-2.903-.934-2.903-.033-.108-.043-.11-.05-.11zM48.305 3.3h-2.401s-.07.019-.07.095l.003 1.263c0 .076.07.095.07.095l2.616-.001s.625-.086.625-.702c0-.617-.566-.75-.843-.75z" fill="#1F1F1F" fill-rule="nonzero"/>
</svg>
