<svg width="59" height="24" viewBox="0 0 59 24" xmlns="http://www.w3.org/2000/svg" xmlns:xlink="http://www.w3.org/1999/xlink">
    <defs>
        <path id="8y2v40ozna" d="M.012.012H44v15.145H.012z"/>
    </defs>
    <g fill="none" fill-rule="evenodd">
        <path d="M52.961 23.895h3.614v-1.137h-2.298v-3.545H52.96v4.682zm-4.345 0h3.614v-1.137H49.93v-3.545h-1.315v4.682zm-5.94 0h1.384l.339-.836h1.83l.346.836h1.41l-2.02-4.715h-1.268l-2.02 4.715zm2.11-1.846.535-1.33.529 1.33h-1.065zm-7.323 1.88h1.146l.95-2.696.955 2.695h1.146l1.587-4.715h-1.363l-.827 2.709-.916-2.722H39.01l-.916 2.722-.827-2.709h-1.39l1.587 4.715zm-7.465-.034h3.851V22.79H31.3v-.742h2.278v-1.023H31.3v-.71h2.516v-1.103h-3.818v4.682zm-5.21 0h1.315v-1.78h1.688v1.78h1.316v-4.682H27.79v1.753h-1.688v-1.753h-1.316v4.682zm-3.603 0H22.5V20.35h1.424v-1.137h-4.163v1.137h1.424v3.545zm-7.499 0h1.316v-1.673h2.244v-1.076h-2.244v-.796h2.481v-1.137h-3.797v4.682zm-4.563 0h1.316v-1.673h2.244v-1.076h-2.244v-.796h2.481v-1.137H9.123v4.682zm-5.93-2.328c0 1.345 1.085 2.421 2.55 2.421 1.464 0 2.562-1.09 2.562-2.434v-.013c0-1.345-1.085-2.421-2.55-2.421-1.464 0-2.562 1.09-2.562 2.434v.013zm3.77 0c0 .676-.482 1.25-1.207 1.25-.719 0-1.214-.588-1.214-1.263v-.013c0-.676.482-1.251 1.2-1.251.726 0 1.22.588 1.22 1.264v.013zm50.671-.465h.888l.169-1.91h-.888l-.169 1.91zM.888 19.192H0l.17 1.91h.887l-.17-1.91zm55.334 1.91h.887l.17-1.91h-.888l-.17 1.91zm-53.752 0h-.888l-.17-1.91H2.3l.17 1.91z" fill="#000" fill-rule="nonzero"/>
        <g transform="translate(7.782 .02)">
            <mask id="pbg0ujdgyb" fill="#fff">
                <use xlink:href="#8y2v40ozna"/>
            </mask>
            <path d="m15.604 11.448 1.179-3.53 1.164 3.53h-2.343zm-4.464 3.583h3.045l.568-1.66h4.03l.583 1.66h2.997l-3.835-10.62h-3.225l-4.163 10.62zm15.127-5.37 3.963 5.37h2.48V4.411h-2.862v5.776l-3.595-5.776h-2.74v10.62h2.754v-5.37zM.012.012c.021.093 5.34 15.02 5.34 15.02h3.173L13.413 2.61H43.77L44 .012H11.08L7.024 10.31 3.37.011H.012zm43.085 7.403h-2.55c-.248-.629-.524-1.12-1.954-1.12-.987 0-1.408.409-1.408.819 0 .447.351.825 1.44 1.067l2.311.619c1.513.405 2.247 1.61 2.247 2.882 0 .709-.153 1.564-.822 2.263-.501.523-1.258 1.213-3.768 1.213-3.452 0-4.587-2.189-4.587-3.512h2.688c.264.966.925 1.334 2.234 1.334.906 0 1.685-.325 1.685-1.02 0-.663-.564-.912-1.292-1.111l-1.826-.495c-.88-.269-1.616-.484-2.135-.926-1.36-1.156-1.261-3.244.218-4.33.819-.6 1.658-.915 2.99-.915 1.566 0 2.459.449 3.163.935.625.431 1.366 1.471 1.366 2.297z" fill="#000" fill-rule="nonzero" mask="url(#pbg0ujdgyb)"/>
        </g>
    </g>
</svg>
