<svg width="20" height="20" viewBox="0 0 20 20" xmlns="http://www.w3.org/2000/svg">
    <path d="M18.186 7.614h-1.823V9.35H14.55v1.744h1.814v1.736h1.823v-1.736H20V9.35h-1.814V7.614zM6.25 15.988c3.607 0 6.002-2.423 6.002-5.843 0-.392-.042-.694-.101-.995h-5.9v2.056h3.547c-.145.873-1.074 2.578-3.547 2.578-2.131 0-3.871-1.69-3.871-3.778s1.74-3.778 3.87-3.778c1.22 0 2.03.497 2.49.922l1.697-1.559C9.345 4.613 7.938 4.025 6.25 4.025 2.797 4.025 0 6.7 0 10.006c0 3.305 2.797 5.982 6.25 5.982z" fill="#A0AEC0" fill-rule="nonzero"/>
</svg>
