<svg width="20" height="20" viewBox="0 0 20 20" xmlns="http://www.w3.org/2000/svg">
    <path d="M10.267 0C4.87 0 2 3.513 2 7.343c0 1.776.977 3.99 2.542 4.693.237.109.366.063.42-.161.046-.17.252-.989.351-1.375a.358.358 0 0 0-.083-.348c-.52-.61-.932-1.72-.932-2.763 0-2.671 2.091-5.265 5.65-5.265 3.076 0 5.229 2.03 5.229 4.934 0 3.28-1.71 5.55-3.931 5.55-1.23 0-2.146-.98-1.855-2.192.35-1.444 1.039-2.996 1.039-4.037 0-.934-.52-1.706-1.58-1.706-1.252 0-2.268 1.258-2.268 2.948 0 1.074.374 1.799.374 1.799s-1.238 5.08-1.468 6.029c-.389 1.606.053 4.207.091 4.431.024.124.16.163.237.061.121-.162 1.618-2.331 2.038-3.898.152-.572.779-2.888.779-2.888.412.756 1.602 1.39 2.87 1.39 3.771 0 6.496-3.366 6.496-7.544C17.985 2.996 14.61 0 10.267 0z" fill="#A0AEC0" fill-rule="nonzero"/>
</svg>
