<svg width="20" height="20" viewBox="0 0 20 20" xmlns="http://www.w3.org/2000/svg">
    <g fill="#A0AEC0" fill-rule="nonzero">
        <path d="M14.986 0h-9.99A5.01 5.01 0 0 0 0 4.995v9.99c0 2.747 2.248 4.996 4.995 4.996h9.99c2.748 0 4.996-2.249 4.996-4.995v-9.99A5.01 5.01 0 0 0 14.986 0zm3.33 14.986a3.334 3.334 0 0 1-3.33 3.33h-9.99a3.334 3.334 0 0 1-3.33-3.33v-9.99a3.334 3.334 0 0 1 3.33-3.33h9.99a3.333 3.333 0 0 1 3.33 3.33v9.99z"/>
        <circle cx="15.403" cy="4.579" r="1.249"/>
        <path d="M9.99 4.995a4.996 4.996 0 1 0 .001 9.99 4.996 4.996 0 0 0 0-9.99zm0 8.326a3.33 3.33 0 1 1 .001-6.66 3.33 3.33 0 0 1 0 6.66z"/>
    </g>
</svg>
