<?xml version="1.0" standalone="no"?>
<!DOCTYPE svg PUBLIC "-//W3C//DTD SVG 20010904//EN"
 "http://www.w3.org/TR/2001/REC-SVG-20010904/DTD/svg10.dtd">
<svg version="1.0" xmlns="http://www.w3.org/2000/svg"
 width="260.000000pt" height="260.000000pt" viewBox="0 0 260.000000 260.000000"
 preserveAspectRatio="xMidYMid meet">
<metadata>
Created by potrace 1.14, written by Peter Selinger 2001-2017
</metadata>
<g transform="translate(0.000000,260.000000) scale(0.100000,-0.100000)"
fill="#000000" stroke="none">
<path d="M741 2459 c-171 -36 -297 -101 -408 -210 -57 -57 -125 -168 -138
-224 -2 -11 -8 -36 -13 -57 -15 -58 -7 -169 16 -220 56 -127 191 -208 442
-263 245 -54 309 -80 328 -134 35 -99 -72 -183 -233 -183 -166 -1 -252 61
-259 186 l-2 41 -213 0 c-248 1 -229 11 -229 -123 0 -235 117 -374 373 -443
68 -19 108 -22 265 -22 157 -1 198 2 272 21 115 28 196 62 269 112 l60 41 47
-40 c86 -71 187 -111 392 -155 152 -33 205 -50 245 -78 85 -57 64 -146 -48
-202 -50 -25 -68 -29 -140 -28 -45 1 -89 3 -97 5 -68 16 -122 52 -145 97 -8
16 -16 50 -17 77 l-3 48 -217 0 c-190 1 -217 -1 -221 -15 -9 -36 -4 -205 8
-245 54 -176 196 -282 439 -323 54 -9 317 -9 381 0 240 35 433 153 519 318 89
169 90 358 3 472 -79 103 -188 157 -432 213 -189 43 -261 73 -280 119 -18 43
-8 82 31 122 41 41 96 57 191 57 120 -1 178 -40 192 -130 l6 -38 210 -1 c116
0 215 4 222 8 16 13 14 152 -4 213 -42 140 -161 241 -343 291 -102 28 -356 26
-475 -5 -103 -26 -230 -84 -293 -133 l-44 -33 -53 52 c-75 73 -211 134 -355
159 -86 16 -231 59 -267 80 -53 31 -67 64 -50 119 23 72 92 107 213 108 129 1
188 -37 203 -130 l6 -38 217 0 217 0 7 45 c9 60 -8 174 -35 230 -46 98 -137
174 -260 216 -93 32 -119 35 -271 39 -106 3 -155 -1 -229 -16z"/>
</g>
</svg>
